<svg data-v-423bf9ae="" xmlns="http://www.w3.org/2000/svg" viewBox="0 0 653 103" class="iconLeft"><!----><!----><!----><g data-v-423bf9ae="" id="39b895a7-01d4-40cb-9f42-5dba3d60c1ba" fill="white" transform="matrix(5.602241039276123,0,0,5.602241039276123,114.50084686279297,4.001119136810303)"><path d="M3.10 4.83L3.10 13.64L1.41 13.64L1.41 3.63L4.43 3.63L4.43 3.63Q5.29 3.63 6.00 3.84L6.00 3.84L6.00 3.84Q6.71 4.05 7.22 4.45L7.22 4.45L7.22 4.45Q7.72 4.85 8.00 5.43L8.00 5.43L8.00 5.43Q8.29 6.01 8.29 6.76L8.29 6.76L8.29 6.76Q8.29 7.57 7.98 8.20L7.98 8.20L7.98 8.20Q7.67 8.84 7.16 9.28L7.16 9.28L7.16 9.28Q6.66 9.72 6.01 9.96L6.01 9.96L6.01 9.96Q5.36 10.19 4.68 10.19L4.68 10.19L4.68 10.19Q4.59 10.19 4.49 10.19L4.49 10.19L4.49 10.19Q4.40 10.18 4.26 10.16L4.26 10.16L4.36 9.02L4.36 9.02Q4.46 9.04 4.55 9.04L4.55 9.04L4.55 9.04Q4.64 9.04 4.72 9.04L4.72 9.04L4.72 9.04Q5.13 9.04 5.47 8.91L5.47 8.91L5.47 8.91Q5.81 8.77 6.06 8.50L6.06 8.50L6.06 8.50Q6.31 8.24 6.45 7.85L6.45 7.85L6.45 7.85Q6.59 7.46 6.59 6.96L6.59 6.96L6.59 6.96Q6.59 6.40 6.43 6.00L6.43 6.00L6.43 6.00Q6.26 5.59 5.95 5.33L5.95 5.33L5.95 5.33Q5.64 5.07 5.20 4.95L5.20 4.95L5.20 4.95Q4.76 4.83 4.20 4.83L4.20 4.83L3.10 4.83ZM10.10 13.64L10.10 6.40L11.44 6.40L11.67 8.56L11.67 8.56Q11.76 8.38 11.87 8.19L11.87 8.19L11.87 8.19Q11.97 8.00 12.07 7.83L12.07 7.83L12.07 7.83Q12.17 7.66 12.26 7.51L12.26 7.51L12.26 7.51Q12.35 7.37 12.41 7.27L12.41 7.27L12.41 7.27Q12.56 7.06 12.74 6.87L12.74 6.87L12.74 6.87Q12.92 6.69 13.13 6.55L13.13 6.55L13.13 6.55Q13.34 6.42 13.59 6.34L13.59 6.34L13.59 6.34Q13.84 6.26 14.12 6.26L14.12 6.26L14.12 6.26Q14.32 6.26 14.52 6.31L14.52 6.31L14.52 6.31Q14.72 6.36 14.85 6.46L14.85 6.46L14.68 7.98L14.68 7.98Q14.55 7.95 14.39 7.94L14.39 7.94L14.39 7.94Q14.23 7.93 14.10 7.93L14.10 7.93L14.10 7.93Q13.66 7.93 13.32 8.06L13.32 8.06L13.32 8.06Q12.97 8.18 12.70 8.40L12.70 8.40L12.70 8.40Q12.42 8.63 12.19 8.93L12.19 8.93L12.19 8.93Q11.96 9.23 11.75 9.58L11.75 9.58L11.75 13.64L10.10 13.64ZM16.40 13.64L16.40 6.40L18.06 6.40L18.06 13.64L16.40 13.64ZM17.23 4.97L17.23 4.97L17.23 4.97Q17.01 4.97 16.83 4.90L16.83 4.90L16.83 4.90Q16.65 4.83 16.51 4.70L16.51 4.70L16.51 4.70Q16.38 4.58 16.31 4.41L16.31 4.41L16.31 4.41Q16.24 4.24 16.24 4.04L16.24 4.04L16.24 4.04Q16.24 3.83 16.31 3.66L16.31 3.66L16.31 3.66Q16.39 3.49 16.53 3.35L16.53 3.35L16.53 3.35Q16.67 3.22 16.86 3.14L16.86 3.14L16.86 3.14Q17.05 3.07 17.27 3.07L17.27 3.07L17.27 3.07Q17.48 3.07 17.66 3.14L17.66 3.14L17.66 3.14Q17.83 3.22 17.96 3.35L17.96 3.35L17.96 3.35Q18.09 3.47 18.17 3.65L18.17 3.65L18.17 3.65Q18.25 3.82 18.25 4.02L18.25 4.02L18.25 4.02Q18.25 4.22 18.17 4.40L18.17 4.40L18.17 4.40Q18.09 4.57 17.95 4.70L17.95 4.70L17.95 4.70Q17.81 4.83 17.62 4.90L17.62 4.90L17.62 4.90Q17.44 4.97 17.23 4.97ZM20.36 13.64L20.36 6.40L21.70 6.40L21.93 7.64L21.93 7.64Q22.17 7.42 22.47 7.17L22.47 7.17L22.47 7.17Q22.76 6.93 23.10 6.73L23.10 6.73L23.10 6.73Q23.44 6.53 23.81 6.40L23.81 6.40L23.81 6.40Q24.17 6.26 24.54 6.26L24.54 6.26L24.54 6.26Q24.87 6.26 25.18 6.37L25.18 6.37L25.18 6.37Q25.48 6.47 25.74 6.66L25.74 6.66L25.74 6.66Q26.00 6.84 26.20 7.10L26.20 7.10L26.20 7.10Q26.40 7.36 26.51 7.66L26.51 7.66L26.51 7.66Q26.78 7.44 27.07 7.19L27.07 7.19L27.07 7.19Q27.36 6.94 27.70 6.73L27.70 6.73L27.70 6.73Q28.03 6.53 28.41 6.40L28.41 6.40L28.41 6.40Q28.78 6.26 29.20 6.26L29.20 6.26L29.20 6.26Q29.71 6.26 30.11 6.46L30.11 6.46L30.11 6.46Q30.52 6.66 30.80 7.00L30.80 7.00L30.80 7.00Q31.08 7.35 31.24 7.82L31.24 7.82L31.24 7.82Q31.39 8.29 31.39 8.83L31.39 8.83L31.39 13.64L29.73 13.64L29.73 9.02L29.73 9.02Q29.73 8.33 29.38 7.93L29.38 7.93L29.38 7.93Q29.03 7.53 28.44 7.53L28.44 7.53L28.44 7.53Q28.20 7.53 27.98 7.60L27.98 7.60L27.98 7.60Q27.75 7.67 27.54 7.80L27.54 7.80L27.54 7.80Q27.33 7.92 27.12 8.10L27.12 8.10L27.12 8.10Q26.91 8.28 26.68 8.48L26.68 8.48L26.68 8.48Q26.69 8.57 26.69 8.65L26.69 8.65L26.69 8.65Q26.69 8.73 26.69 8.83L26.69 8.83L26.69 13.64L25.04 13.64L25.04 9.02L25.04 9.02Q25.04 8.67 24.94 8.40L24.94 8.40L24.94 8.40Q24.85 8.12 24.68 7.93L24.68 7.93L24.68 7.93Q24.51 7.73 24.27 7.63L24.27 7.63L24.27 7.63Q24.03 7.53 23.74 7.53L23.74 7.53L23.74 7.53Q23.50 7.53 23.28 7.60L23.28 7.60L23.28 7.60Q23.06 7.67 22.86 7.80L22.86 7.80L22.86 7.80Q22.65 7.92 22.44 8.09L22.44 8.09L22.44 8.09Q22.23 8.26 22.01 8.47L22.01 8.47L22.01 13.64L20.36 13.64ZM39.64 12.15L39.64 12.98L39.64 12.98Q39.34 13.19 38.99 13.34L38.99 13.34L38.99 13.34Q38.64 13.49 38.27 13.59L38.27 13.59L38.27 13.59Q37.91 13.69 37.54 13.74L37.54 13.74L37.54 13.74Q37.17 13.78 36.85 13.78L36.85 13.78L36.85 13.78Q36.09 13.78 35.43 13.55L35.43 13.55L35.43 13.55Q34.78 13.32 34.30 12.87L34.30 12.87L34.30 12.87Q33.82 12.41 33.54 11.75L33.54 11.75L33.54 11.75Q33.27 11.09 33.27 10.24L33.27 10.24L33.27 10.24Q33.27 9.33 33.58 8.59L33.58 8.59L33.58 8.59Q33.89 7.85 34.40 7.34L34.40 7.34L34.40 7.34Q34.92 6.82 35.60 6.54L35.60 6.54L35.60 6.54Q36.28 6.26 37.02 6.26L37.02 6.26L37.02 6.26Q37.63 6.26 38.16 6.46L38.16 6.46L38.16 6.46Q38.69 6.67 39.08 7.06L39.08 7.06L39.08 7.06Q39.46 7.46 39.68 8.05L39.68 8.05L39.68 8.05Q39.90 8.65 39.90 9.43L39.90 9.43L39.90 9.43Q39.90 9.63 39.88 9.84L39.88 9.84L39.88 9.84Q39.87 10.06 39.83 10.26L39.83 10.26L34.99 10.26L34.99 10.26Q34.99 10.81 35.18 11.24L35.18 11.24L35.18 11.24Q35.38 11.66 35.73 11.95L35.73 11.95L35.73 11.95Q36.09 12.23 36.59 12.38L36.59 12.38L36.59 12.38Q37.08 12.52 37.69 12.52L37.69 12.52L37.69 12.52Q37.86 12.52 38.09 12.51L38.09 12.51L38.09 12.51Q38.32 12.50 38.58 12.46L38.58 12.46L38.58 12.46Q38.83 12.41 39.11 12.34L39.11 12.34L39.11 12.34Q39.38 12.27 39.64 12.15L39.64 12.15ZM34.99 9.45L38.36 9.45L38.36 9.45Q38.36 8.96 38.24 8.58L38.24 8.58L38.24 8.58Q38.11 8.20 37.89 7.95L37.89 7.95L37.89 7.95Q37.67 7.70 37.38 7.57L37.38 7.57L37.38 7.57Q37.09 7.44 36.76 7.44L36.76 7.44L36.76 7.44Q36.38 7.44 36.06 7.59L36.06 7.59L36.06 7.59Q35.74 7.75 35.50 8.02L35.50 8.02L35.50 8.02Q35.26 8.29 35.12 8.65L35.12 8.65L35.12 8.65Q34.99 9.02 34.99 9.45L34.99 9.45ZM41.68 9.04L46.38 9.04L46.38 10.17L41.68 10.17L41.68 9.04ZM50.50 13.64L48.81 13.64L48.81 3.63L54.90 3.63L54.67 4.83L50.50 4.83L50.50 7.85L54.20 7.85L53.98 9.02L50.50 9.02L50.50 13.64ZM56.70 13.64L56.70 6.40L58.36 6.40L58.36 13.64L56.70 13.64ZM57.52 4.97L57.52 4.97L57.52 4.97Q57.31 4.97 57.12 4.90L57.12 4.90L57.12 4.90Q56.94 4.83 56.81 4.70L56.81 4.70L56.81 4.70Q56.68 4.58 56.60 4.41L56.60 4.41L56.60 4.41Q56.53 4.24 56.53 4.04L56.53 4.04L56.53 4.04Q56.53 3.83 56.61 3.66L56.61 3.66L56.61 3.66Q56.69 3.49 56.83 3.35L56.83 3.35L56.83 3.35Q56.97 3.22 57.16 3.14L57.16 3.14L57.16 3.14Q57.35 3.07 57.57 3.07L57.57 3.07L57.57 3.07Q57.78 3.07 57.96 3.14L57.96 3.14L57.96 3.14Q58.13 3.22 58.26 3.35L58.26 3.35L58.26 3.35Q58.39 3.47 58.47 3.65L58.47 3.65L58.47 3.65Q58.54 3.82 58.54 4.02L58.54 4.02L58.54 4.02Q58.54 4.22 58.46 4.40L58.46 4.40L58.46 4.40Q58.39 4.57 58.25 4.70L58.25 4.70L58.25 4.70Q58.11 4.83 57.92 4.90L57.92 4.90L57.92 4.90Q57.74 4.97 57.52 4.97ZM61.27 11.64L61.27 7.58L59.81 7.58L59.94 6.80L59.94 6.80Q60.48 6.67 60.80 6.49L60.80 6.49L60.80 6.49Q61.13 6.32 61.34 6.07L61.34 6.07L61.34 6.07Q61.56 5.82 61.72 5.47L61.72 5.47L61.72 5.47Q61.88 5.11 62.09 4.59L62.09 4.59L62.88 4.59L62.88 6.40L65.49 6.40L65.19 7.58L62.93 7.58L62.93 11.31L62.93 11.31Q62.93 11.65 63.03 11.88L63.03 11.88L63.03 11.88Q63.12 12.11 63.30 12.25L63.30 12.25L63.30 12.25Q63.48 12.39 63.73 12.46L63.73 12.46L63.73 12.46Q63.98 12.52 64.29 12.52L64.29 12.52L64.29 12.52Q64.59 12.52 64.89 12.47L64.89 12.47L64.89 12.47Q65.19 12.41 65.45 12.31L65.45 12.31L65.45 13.15L65.45 13.15Q64.99 13.46 64.46 13.62L64.46 13.62L64.46 13.62Q63.93 13.78 63.39 13.78L63.39 13.78L63.39 13.78Q62.36 13.78 61.81 13.22L61.81 13.22L61.81 13.22Q61.27 12.66 61.27 11.64L61.27 11.64ZM67.33 13.64L67.33 6.40L68.67 6.40L68.90 7.64L68.90 7.64Q69.14 7.42 69.44 7.17L69.44 7.17L69.44 7.17Q69.74 6.93 70.10 6.73L70.10 6.73L70.10 6.73Q70.45 6.53 70.84 6.40L70.84 6.40L70.84 6.40Q71.24 6.26 71.66 6.26L71.66 6.26L71.66 6.26Q72.16 6.26 72.57 6.45L72.57 6.45L72.57 6.45Q72.97 6.64 73.26 6.98L73.26 6.98L73.26 6.98Q73.55 7.31 73.71 7.79L73.71 7.79L73.71 7.79Q73.86 8.26 73.86 8.82L73.86 8.82L73.86 13.64L72.20 13.64L72.20 9.02L72.20 9.02Q72.20 8.65 72.10 8.37L72.10 8.37L72.10 8.37Q72.00 8.09 71.81 7.90L71.81 7.90L71.81 7.90Q71.63 7.72 71.38 7.62L71.38 7.62L71.38 7.62Q71.13 7.53 70.85 7.53L70.85 7.53L70.85 7.53Q70.34 7.53 69.89 7.79L69.89 7.79L69.89 7.79Q69.44 8.05 68.98 8.47L68.98 8.47L68.98 13.64L67.33 13.64ZM82.07 12.15L82.07 12.98L82.07 12.98Q81.77 13.19 81.42 13.34L81.42 13.34L81.42 13.34Q81.07 13.49 80.71 13.59L80.71 13.59L80.71 13.59Q80.34 13.69 79.97 13.74L79.97 13.74L79.97 13.74Q79.60 13.78 79.28 13.78L79.28 13.78L79.28 13.78Q78.52 13.78 77.86 13.55L77.86 13.55L77.86 13.55Q77.21 13.32 76.73 12.87L76.73 12.87L76.73 12.87Q76.25 12.41 75.97 11.75L75.97 11.75L75.97 11.75Q75.70 11.09 75.70 10.24L75.70 10.24L75.70 10.24Q75.70 9.33 76.01 8.59L76.01 8.59L76.01 8.59Q76.32 7.85 76.83 7.34L76.83 7.34L76.83 7.34Q77.35 6.82 78.03 6.54L78.03 6.54L78.03 6.54Q78.71 6.26 79.45 6.26L79.45 6.26L79.45 6.26Q80.06 6.26 80.59 6.46L80.59 6.46L80.59 6.46Q81.12 6.67 81.51 7.06L81.51 7.06L81.51 7.06Q81.89 7.46 82.11 8.05L82.11 8.05L82.11 8.05Q82.33 8.65 82.33 9.43L82.33 9.43L82.33 9.43Q82.33 9.63 82.31 9.84L82.31 9.84L82.31 9.84Q82.30 10.06 82.26 10.26L82.26 10.26L77.42 10.26L77.42 10.26Q77.42 10.81 77.61 11.24L77.61 11.24L77.61 11.24Q77.81 11.66 78.16 11.95L78.16 11.95L78.16 11.95Q78.52 12.23 79.02 12.38L79.02 12.38L79.02 12.38Q79.52 12.52 80.12 12.52L80.12 12.52L80.12 12.52Q80.29 12.52 80.52 12.51L80.52 12.51L80.52 12.51Q80.75 12.50 81.01 12.46L81.01 12.46L81.01 12.46Q81.27 12.41 81.54 12.34L81.54 12.34L81.54 12.34Q81.81 12.27 82.07 12.15L82.07 12.15ZM77.42 9.45L80.79 9.45L80.79 9.45Q80.79 8.96 80.67 8.58L80.67 8.58L80.67 8.58Q80.54 8.20 80.32 7.95L80.32 7.95L80.32 7.95Q80.10 7.70 79.81 7.57L79.81 7.57L79.81 7.57Q79.52 7.44 79.19 7.44L79.19 7.44L79.19 7.44Q78.81 7.44 78.49 7.59L78.49 7.59L78.49 7.59Q78.17 7.75 77.93 8.02L77.93 8.02L77.93 8.02Q77.69 8.29 77.55 8.65L77.55 8.65L77.55 8.65Q77.42 9.02 77.42 9.45L77.42 9.45ZM83.77 13.30L84.06 12.06L84.18 11.98L84.18 11.98Q84.45 12.13 84.74 12.24L84.74 12.24L84.74 12.24Q85.03 12.36 85.32 12.44L85.32 12.44L85.32 12.44Q85.61 12.52 85.88 12.56L85.88 12.56L85.88 12.56Q86.15 12.60 86.39 12.60L86.39 12.60L86.39 12.60Q87.01 12.60 87.37 12.34L87.37 12.34L87.37 12.34Q87.72 12.08 87.72 11.68L87.72 11.68L87.72 11.68Q87.72 11.40 87.56 11.22L87.56 11.22L87.56 11.22Q87.40 11.05 87.13 10.92L87.13 10.92L87.13 10.92Q86.87 10.79 86.54 10.70L86.54 10.70L86.54 10.70Q86.20 10.60 85.85 10.50L85.85 10.50L85.85 10.50Q85.50 10.39 85.16 10.25L85.16 10.25L85.16 10.25Q84.83 10.12 84.56 9.91L84.56 9.91L84.56 9.91Q84.30 9.69 84.14 9.39L84.14 9.39L84.14 9.39Q83.98 9.08 83.98 8.64L83.98 8.64L83.98 8.64Q83.98 8.14 84.19 7.70L84.19 7.70L84.19 7.70Q84.41 7.27 84.81 6.95L84.81 6.95L84.81 6.95Q85.21 6.63 85.78 6.45L85.78 6.45L85.78 6.45Q86.35 6.26 87.06 6.26L87.06 6.26L87.06 6.26Q87.24 6.26 87.48 6.28L87.48 6.28L87.48 6.28Q87.71 6.29 87.97 6.32L87.97 6.32L87.97 6.32Q88.22 6.35 88.48 6.40L88.48 6.40L88.48 6.40Q88.74 6.45 88.97 6.52L88.97 6.52L88.67 7.75L88.52 7.83L88.52 7.83Q88.31 7.73 88.08 7.66L88.08 7.66L88.08 7.66Q87.84 7.58 87.61 7.54L87.61 7.54L87.61 7.54Q87.37 7.49 87.15 7.47L87.15 7.47L87.15 7.47Q86.93 7.44 86.75 7.44L86.75 7.44L86.75 7.44Q86.15 7.44 85.81 7.68L85.81 7.68L85.81 7.68Q85.48 7.92 85.48 8.33L85.48 8.33L85.48 8.33Q85.48 8.61 85.64 8.79L85.64 8.79L85.64 8.79Q85.80 8.97 86.07 9.10L86.07 9.10L86.07 9.10Q86.33 9.22 86.67 9.31L86.67 9.31L86.67 9.31Q87.01 9.41 87.37 9.51L87.37 9.51L87.37 9.51Q87.72 9.62 88.06 9.75L88.06 9.75L88.06 9.75Q88.40 9.89 88.67 10.10L88.67 10.10L88.67 10.10Q88.93 10.32 89.09 10.62L89.09 10.62L89.09 10.62Q89.26 10.93 89.26 11.38L89.26 11.38L89.26 11.38Q89.26 11.89 89.04 12.33L89.04 12.33L89.04 12.33Q88.82 12.77 88.42 13.09L88.42 13.09L88.42 13.09Q88.01 13.41 87.45 13.60L87.45 13.60L87.45 13.60Q86.88 13.78 86.19 13.78L86.19 13.78L86.19 13.78Q85.62 13.78 84.98 13.66L84.98 13.66L84.98 13.66Q84.35 13.54 83.77 13.30L83.77 13.30ZM90.62 13.30L90.92 12.06L91.04 11.98L91.04 11.98Q91.31 12.13 91.60 12.24L91.60 12.24L91.60 12.24Q91.89 12.36 92.18 12.44L92.18 12.44L92.18 12.44Q92.46 12.52 92.74 12.56L92.74 12.56L92.74 12.56Q93.01 12.60 93.25 12.60L93.25 12.60L93.25 12.60Q93.87 12.60 94.22 12.34L94.22 12.34L94.22 12.34Q94.58 12.08 94.58 11.68L94.58 11.68L94.58 11.68Q94.58 11.40 94.41 11.22L94.41 11.22L94.41 11.22Q94.25 11.05 93.99 10.92L93.99 10.92L93.99 10.92Q93.73 10.79 93.39 10.70L93.39 10.70L93.39 10.70Q93.06 10.60 92.71 10.50L92.71 10.50L92.71 10.50Q92.35 10.39 92.02 10.25L92.02 10.25L92.02 10.25Q91.68 10.12 91.42 9.91L91.42 9.91L91.42 9.91Q91.16 9.69 91.00 9.39L91.00 9.39L91.00 9.39Q90.84 9.08 90.84 8.64L90.84 8.64L90.84 8.64Q90.84 8.14 91.05 7.70L91.05 7.70L91.05 7.70Q91.27 7.27 91.67 6.95L91.67 6.95L91.67 6.95Q92.07 6.63 92.64 6.45L92.64 6.45L92.64 6.45Q93.21 6.26 93.92 6.26L93.92 6.26L93.92 6.26Q94.10 6.26 94.33 6.28L94.33 6.28L94.33 6.28Q94.57 6.29 94.82 6.32L94.82 6.32L94.82 6.32Q95.08 6.35 95.34 6.40L95.34 6.40L95.34 6.40Q95.60 6.45 95.83 6.52L95.83 6.52L95.53 7.75L95.38 7.83L95.38 7.83Q95.17 7.73 94.93 7.66L94.93 7.66L94.93 7.66Q94.70 7.58 94.46 7.54L94.46 7.54L94.46 7.54Q94.23 7.49 94.00 7.47L94.00 7.47L94.00 7.47Q93.78 7.44 93.61 7.44L93.61 7.44L93.61 7.44Q93.01 7.44 92.67 7.68L92.67 7.68L92.67 7.68Q92.33 7.92 92.33 8.33L92.33 8.33L92.33 8.33Q92.33 8.61 92.50 8.79L92.50 8.79L92.50 8.79Q92.66 8.97 92.92 9.10L92.92 9.10L92.92 9.10Q93.19 9.22 93.53 9.31L93.53 9.31L93.53 9.31Q93.87 9.41 94.22 9.51L94.22 9.51L94.22 9.51Q94.58 9.62 94.92 9.75L94.92 9.75L94.92 9.75Q95.26 9.89 95.52 10.10L95.52 10.10L95.52 10.10Q95.79 10.32 95.95 10.62L95.95 10.62L95.95 10.62Q96.11 10.93 96.11 11.38L96.11 11.38L96.11 11.38Q96.11 11.89 95.89 12.33L95.89 12.33L95.89 12.33Q95.68 12.77 95.27 13.09L95.27 13.09L95.27 13.09Q94.87 13.41 94.30 13.60L94.30 13.60L94.30 13.60Q93.73 13.78 93.04 13.78L93.04 13.78L93.04 13.78Q92.48 13.78 91.84 13.66L91.84 13.66L91.84 13.66Q91.21 13.54 90.62 13.30L90.62 13.30Z"></path></g><!----><g data-v-423bf9ae="" id="e9af7fa7-fa45-4490-968a-13cff90ae852" transform="matrix(1.0666667222976685,0,0,1.0666667222976685,270.66668701171875,-371.4666748046875)" stroke="none" fill="white"><path d="M-162.3 382.4c0 18.3-8.6 28.1-42.7 56.4-23.6-19.7-35-30.4-39.8-41.3h25.1l3.3 4.8c.4.5 1 .8 1.6.6.6-.1 1.1-.7 1.2-1.3l2.7-17.3 6.1 37.1c.1.8.8 1.3 1.5 1.3.8 0 1.4-.5 1.5-1.3l5.1-27 .6 1.9c.2.6.8 1.1 1.5 1.1h14.4c.7 1.6 2.2 2.7 4.1 2.7 2.5 0 4.4-2 4.4-4.4 0-2.5-2-4.4-4.4-4.4-2 0-3.6 1.3-4.2 3.1h-13.1l-2.2-6.6c-.2-.7-.8-1.2-1.6-1.1-.7 0-1.3.6-1.4 1.3l-4.6 24.3-6.2-38c-.1-.8-.8-1.3-1.5-1.3-.8 0-1.4.6-1.5 1.3l-3.6 23-1.5-2.2c-.3-.4-.8-.7-1.3-.7h-27.1c-1.2-3.8-1.7-7.7-1.7-12 0-19.3 11.2-28.1 21.5-28.1 10.6 0 19 10.3 19.1 10.4.5.6 1.3 1 2.1 1s1.6-.4 2.1-1c.1-.1 8.4-10.4 19.1-10.4 10.2 0 21.4 8.8 21.4 28.1m5.3 0c0-21.9-13.5-33.4-26.8-33.4-9.8 0-17.6 6.5-21.2 10.2-3.6-3.6-11.4-10.2-21.2-10.2-13.3 0-26.8 11.5-26.8 33.4 0 21.8 11.3 33 46.3 62 .5.4 1.1.6 1.7.6s1.2-.2 1.7-.6c35-29 46.3-40.2 46.3-62"></path></g><!----></svg>